<svg xmlns="http://www.w3.org/2000/svg" version="1.1" xmlns:xlink="http://www.w3.org/1999/xlink" xmlns:svgjs="http://svgjs.dev/svgjs" viewBox="0 0 2400 800"><defs><linearGradient x1="50%" y1="0%" x2="50%" y2="100%" id="sssurf-grad"><stop stop-color="hsl(208, 77%, 50%)" stop-opacity="1" offset="0%"></stop><stop stop-color="hsl(208, 74%, 93%)" stop-opacity="1" offset="100%"></stop></linearGradient></defs><g fill="url(#sssurf-grad)" transform="matrix(1,0,0,1,0,-92.47293090820312)"><path d="M 0 338.73570781082486 Q 450 531.3854409652902 600 304.94583610325475 Q 1050 469.05620775819614 1200 344.3006399802195 Q 1650 603.3681797172165 1800 332.0852476967074 Q 2250 520.2468336903091 2400 333.1344681509039 L 2400 800 L 0 800 L 0 322.09647508749504 Z" transform="matrix(1,0,0,1,0,35)" opacity="0.05"></path><path d="M 0 338.73570781082486 Q 450 531.3854409652902 600 304.94583610325475 Q 1050 469.05620775819614 1200 344.3006399802195 Q 1650 603.3681797172165 1800 332.0852476967074 Q 2250 520.2468336903091 2400 333.1344681509039 L 2400 800 L 0 800 L 0 322.09647508749504 Z" transform="matrix(1,0,0,1,0,70)" opacity="0.21"></path><path d="M 0 338.73570781082486 Q 450 531.3854409652902 600 304.94583610325475 Q 1050 469.05620775819614 1200 344.3006399802195 Q 1650 603.3681797172165 1800 332.0852476967074 Q 2250 520.2468336903091 2400 333.1344681509039 L 2400 800 L 0 800 L 0 322.09647508749504 Z" transform="matrix(1,0,0,1,0,105)" opacity="0.37"></path><path d="M 0 338.73570781082486 Q 450 531.3854409652902 600 304.94583610325475 Q 1050 469.05620775819614 1200 344.3006399802195 Q 1650 603.3681797172165 1800 332.0852476967074 Q 2250 520.2468336903091 2400 333.1344681509039 L 2400 800 L 0 800 L 0 322.09647508749504 Z" transform="matrix(1,0,0,1,0,140)" opacity="0.53"></path><path d="M 0 338.73570781082486 Q 450 531.3854409652902 600 304.94583610325475 Q 1050 469.05620775819614 1200 344.3006399802195 Q 1650 603.3681797172165 1800 332.0852476967074 Q 2250 520.2468336903091 2400 333.1344681509039 L 2400 800 L 0 800 L 0 322.09647508749504 Z" transform="matrix(1,0,0,1,0,175)" opacity="0.68"></path><path d="M 0 338.73570781082486 Q 450 531.3854409652902 600 304.94583610325475 Q 1050 469.05620775819614 1200 344.3006399802195 Q 1650 603.3681797172165 1800 332.0852476967074 Q 2250 520.2468336903091 2400 333.1344681509039 L 2400 800 L 0 800 L 0 322.09647508749504 Z" transform="matrix(1,0,0,1,0,210)" opacity="0.84"></path><path d="M 0 338.73570781082486 Q 450 531.3854409652902 600 304.94583610325475 Q 1050 469.05620775819614 1200 344.3006399802195 Q 1650 603.3681797172165 1800 332.0852476967074 Q 2250 520.2468336903091 2400 333.1344681509039 L 2400 800 L 0 800 L 0 322.09647508749504 Z" transform="matrix(1,0,0,1,0,245)" opacity="1"></path></g></svg>